# xmcd CD database file
#
# Track frame offsets:
#	182
#	12245
#	24785
#	43095
#	61215
#	78599
#	98923
#	110716
#	124189
#	139052
#	153718
#	168176
#	182742
#	198385
#	212455
#	227571
#	239470
#	254710
#	266758
#	278705
#	291668
#	306113
#
# Disc length: 4260 seconds
#
# Revision: 0
# Processed by: cddbd v1.5.1PL0 Copyright (c) Steve Scherf et al.
# Submitted via: CDex 1.51
#
DISCID=4210a216
DTITLE=Buck Clayton - Classics 1945-1947
DYEAR=1945
DGENRE=Jazz
TTITLE0=I'm in the Mood for Love
TTITLE1=Sugar Hips
TTITLE2=Diga Diga Doo
TTITLE3=Love Me or Leave Me
TTITLE4=We're in the Money (The Gold Diggers Song)
TTITLE5=B.C Blues
TTITLE6=Why Do I Love You?
TTITLE7=All My Life
TTITLE8=Groovin' With J.C
TTITLE9=What's the Use?
TTITLE10=Dawn Dance
TTITLE11=Well-A-Poppin'
TTITLE12=On the Sunny Side of the Street
TTITLE13=It's Dizzy
TTITLE14=Basie's Morning Bluesicale
TTITLE15=Saragota Special
TTITLE16=Sentimental Summer
TTITLE17=Harlem Cradle Song
TTITLE18=My Good Man Sam
TTITLE19=I Want a Little Girl
TTITLE20=Jazz Band
TTITLE21=Jazz Band
EXTD=YEAR: 1945
EXTT0=
EXTT1=
EXTT2=
EXTT3=
EXTT4=
EXTT5=
EXTT6=
EXTT7=
EXTT8=
EXTT9=
EXTT10=
EXTT11=
EXTT12=
EXTT13=
EXTT14=
EXTT15=
EXTT16=
EXTT17=
EXTT18=
EXTT19=
EXTT20=
EXTT21=
PLAYORDER=
